<?xml version="1.0" standalone="no"?>
<!DOCTYPE svg PUBLIC "-//W3C//DTD SVG 20010904//EN"
 "http://www.w3.org/TR/2001/REC-SVG-20010904/DTD/svg10.dtd">
<svg version="1.0" xmlns="http://www.w3.org/2000/svg"
 width="1280.000000pt" height="1178.000000pt" viewBox="0 0 1280.000000 1178.000000"
 preserveAspectRatio="xMidYMid meet">
<metadata>
Created by potrace 1.15, written by Peter Selinger 2001-2017
</metadata>
<g transform="translate(0.000000,1178.000000) scale(0.100000,-0.100000)"
fill="#000000" stroke="none">
<path d="M7546 11742 c27 -192 98 -333 190 -377 41 -19 158 -20 213 -1 35 13
42 13 55 0 26 -26 27 -49 3 -118 l-24 -67 23 -116 c62 -304 86 -591 56 -675
-8 -21 -17 -38 -21 -38 -16 0 -264 213 -354 303 -110 111 -129 146 -222 395
-65 172 -70 182 -95 182 -41 0 -103 86 -112 156 -10 77 -63 171 -117 209 -42
30 -44 30 -209 36 -132 4 -174 9 -200 23 -19 10 -37 15 -40 11 -10 -9 36 -155
73 -230 58 -119 138 -194 225 -209 45 -8 140 9 204 37 l49 21 22 -28 c13 -16
27 -43 32 -60 7 -24 15 -31 33 -31 21 0 30 -13 68 -97 73 -165 59 -220 -52
-196 -44 9 -50 8 -70 -12 l-21 -22 28 5 c33 5 107 -11 107 -24 0 -5 -4 -9 -9
-9 -4 0 -26 -12 -47 -27 -29 -20 -57 -29 -112 -34 -127 -13 -217 -73 -243
-160 -5 -19 -13 -82 -19 -141 -7 -82 -15 -119 -35 -158 l-26 -51 38 6 c183 30
296 77 362 151 63 72 76 171 36 283 -12 36 -12 41 6 57 10 9 42 23 70 30 l51
13 82 -72 c44 -39 94 -82 109 -94 l28 -22 -20 -40 -21 -40 21 -12 c12 -6 36
-8 53 -5 35 7 42 0 249 -247 l57 -67 0 -77 c0 -42 -20 -259 -45 -482 -67 -610
-66 -605 -55 -906 11 -288 1 -659 -25 -878 -17 -145 -46 -317 -54 -317 -10 0
-534 559 -555 591 -17 27 -17 37 -6 147 7 64 11 162 9 217 -4 98 -5 104 -52
193 -26 51 -45 97 -42 102 13 21 6 158 -11 205 -34 102 -81 137 -234 175 -106
26 -137 37 -175 65 -61 44 -58 50 -53 -96 6 -153 27 -233 83 -310 53 -74 105
-94 245 -94 l115 -1 12 -39 c6 -22 12 -51 12 -64 1 -13 8 -29 16 -35 12 -9 15
-41 17 -158 3 -139 2 -147 -19 -170 -13 -13 -28 -38 -34 -56 -11 -31 -9 -35
88 -154 272 -335 472 -635 514 -767 15 -50 16 -73 9 -157 -5 -55 -25 -288 -45
-519 -20 -231 -38 -426 -40 -433 -4 -10 -21 -5 -65 19 -44 23 -68 44 -91 80
-35 56 -73 89 -100 89 -16 0 -17 -4 -9 -25 5 -13 6 -26 1 -29 -21 -14 -100 -7
-141 13 -54 25 -176 29 -218 7 -41 -21 -81 -68 -133 -154 -27 -46 -63 -89 -87
-107 -22 -16 -41 -33 -41 -37 -1 -10 123 -45 206 -58 78 -12 159 -3 212 24 60
31 105 105 125 206 13 60 25 68 92 56 28 -6 40 -18 79 -82 56 -92 75 -138 75
-177 0 -16 -29 -131 -64 -256 -142 -501 -195 -730 -221 -961 -21 -195 -62
-463 -80 -527 -8 -28 -15 -79 -15 -113 0 -47 -8 -80 -36 -148 -47 -113 -228
-475 -265 -528 -32 -47 -99 -104 -121 -104 -33 0 -48 35 -48 107 l0 70 -57 16
c-68 19 -116 47 -137 79 -10 15 -24 103 -40 248 -27 233 -65 478 -92 585 -23
92 -68 163 -179 286 -98 108 -101 111 -137 106 -34 -5 -39 -2 -86 57 -183 226
-293 528 -323 886 -9 104 -9 185 1 355 7 121 12 247 11 279 -2 86 24 123 238
341 103 105 216 224 251 265 169 197 327 364 357 376 19 9 70 14 124 14 74 0
96 -4 112 -17 14 -13 37 -18 86 -19 36 0 88 -6 114 -13 67 -18 130 -7 171 29
18 16 52 65 76 110 24 45 56 92 72 105 15 13 28 26 28 29 0 10 -141 36 -195
36 -86 0 -142 -18 -180 -57 -37 -38 -65 -107 -65 -160 0 -39 -17 -44 -26 -8
-5 21 -10 24 -28 19 -162 -52 -236 -42 -236 31 0 34 46 149 144 362 35 77 56
136 56 159 0 56 29 87 101 109 49 14 75 30 115 69 64 63 72 94 54 223 -12 86
-10 146 6 187 6 15 0 14 -45 -4 -128 -50 -233 -125 -266 -190 -32 -64 -20
-176 25 -240 11 -16 20 -33 20 -39 0 -7 -22 -26 -49 -42 -30 -19 -48 -36 -44
-44 8 -22 -46 -184 -94 -279 -63 -125 -152 -259 -269 -406 -55 -69 -125 -163
-155 -210 -78 -119 -305 -321 -374 -332 -18 -3 -20 2 -18 54 2 57 65 316 105
432 12 36 32 69 49 83 16 14 43 53 60 88 41 85 36 130 -26 218 -59 82 -84 129
-93 174 l-8 37 -51 -64 c-144 -178 -163 -305 -61 -409 24 -24 55 -49 71 -57
33 -17 33 -23 5 -77 -12 -23 -23 -49 -24 -57 -1 -19 -120 -412 -141 -467 -9
-24 -19 -43 -24 -43 -11 0 -26 54 -38 135 -6 39 -36 162 -66 275 -74 273 -111
420 -124 505 -7 39 -39 160 -71 270 -89 300 -93 323 -80 414 7 42 29 129 50
193 22 64 49 170 61 235 18 96 29 130 60 183 28 47 46 98 67 188 24 99 35 129
58 154 33 34 97 74 135 83 22 5 28 2 39 -24 10 -25 10 -44 0 -96 -26 -140 19
-220 154 -270 85 -31 152 -69 165 -93 19 -34 26 2 26 131 0 125 -2 135 -28
190 -39 79 -90 109 -197 115 -87 5 -90 8 -90 85 0 20 -3 37 -6 37 -3 0 -20
-11 -37 -24 -37 -27 -111 -66 -127 -66 -27 0 50 159 97 200 31 28 40 30 110
30 88 0 150 24 183 70 11 16 32 75 46 131 14 56 34 115 45 130 10 15 19 30 19
35 0 15 -185 -4 -245 -27 -116 -43 -169 -137 -147 -259 11 -57 6 -63 -61 -75
-39 -8 -44 -14 -25 -33 13 -13 -11 -73 -74 -182 -20 -36 -60 -126 -88 -200
-29 -74 -59 -139 -67 -144 -42 -24 -50 -42 -55 -137 -5 -77 -13 -110 -41 -179
-19 -47 -40 -105 -47 -130 -20 -79 -41 -140 -49 -140 -4 0 -41 75 -81 168 -97
220 -148 323 -198 401 -39 59 -42 69 -42 132 l0 68 -51 35 c-63 42 -125 112
-210 236 -36 52 -101 141 -145 197 -61 78 -87 123 -117 198 -41 103 -73 217
-82 293 l-6 47 63 50 c54 43 73 52 132 62 76 13 171 56 228 103 20 17 49 56
65 88 28 57 28 58 28 252 0 181 2 198 23 244 12 27 21 51 19 52 -2 2 -45 -8
-96 -21 -206 -56 -379 -165 -439 -279 -48 -91 -33 -269 30 -374 l20 -33 -23
-26 c-26 -27 -79 -56 -121 -67 -24 -5 -26 -9 -18 -29 10 -27 31 -219 24 -226
-9 -10 -159 27 -239 58 -65 25 -93 44 -149 98 -69 65 -70 68 -74 125 -3 43 1
70 16 106 27 63 37 156 22 210 -16 61 -66 112 -182 182 -71 44 -109 75 -131
107 l-32 45 -12 -31 c-7 -16 -22 -67 -34 -112 -26 -99 -24 -263 3 -314 42 -77
145 -142 243 -152 47 -5 54 -8 58 -32 3 -14 1 -46 -3 -71 -5 -25 -9 -48 -10
-51 0 -3 11 -4 23 -2 17 3 60 -19 157 -82 170 -111 296 -181 338 -190 43 -9
87 -69 137 -189 47 -111 75 -162 138 -243 26 -35 45 -63 42 -63 -12 0 -91 43
-123 67 -17 13 -39 37 -47 52 -8 17 -25 31 -40 33 -28 6 -32 -6 -13 -47 10
-22 9 -28 -3 -36 -17 -11 -98 -2 -153 17 -27 10 -43 11 -50 4 -5 -5 -21 -10
-34 -10 -13 0 -46 -16 -72 -35 -31 -23 -59 -35 -81 -35 -46 -1 -102 -22 -144
-54 -62 -47 -69 -67 -76 -205 -4 -82 -12 -140 -23 -165 -9 -22 -15 -40 -14
-42 7 -5 156 38 204 60 71 33 139 97 160 152 19 50 14 128 -12 194 -19 48 -11
63 44 81 43 14 187 6 280 -16 67 -16 323 -130 375 -167 77 -55 196 -406 397
-1172 94 -359 132 -516 123 -516 -13 0 -367 166 -429 201 -67 38 -73 45 -130
142 -32 55 -84 128 -114 161 -56 61 -55 60 -286 166 -64 30 -67 33 -45 41 14
5 50 7 80 3 97 -11 184 25 217 88 9 17 26 66 39 109 12 44 34 95 49 113 14 19
26 38 26 42 0 4 -48 4 -107 1 -134 -6 -206 -31 -256 -87 -37 -40 -45 -68 -50
-180 l-2 -55 -40 -8 c-22 -5 -50 -11 -62 -13 -35 -7 -28 -18 20 -32 85 -27
287 -134 330 -176 43 -42 167 -219 167 -238 0 -14 -33 -8 -239 41 -225 54
-350 95 -393 131 -24 20 -58 74 -107 169 -39 77 -87 158 -106 181 -19 23 -35
45 -35 50 0 16 27 28 83 34 102 11 181 56 212 121 11 24 20 78 24 149 6 83 14
122 30 154 l22 43 -23 -5 c-13 -3 -46 -10 -74 -15 -128 -25 -239 -87 -279
-155 -20 -35 -25 -56 -25 -112 1 -38 7 -87 15 -109 19 -53 20 -52 -16 -71 -24
-12 -45 -14 -93 -9 -54 6 -67 13 -107 50 -52 49 -119 85 -198 109 -125 37
-209 11 -336 -102 -150 -134 -187 -161 -253 -183 l-63 -21 33 -25 c72 -54 218
-134 298 -165 75 -28 97 -32 190 -32 126 -1 164 15 251 105 50 52 119 167 119
199 0 31 143 -13 181 -56 26 -29 111 -204 124 -254 9 -35 20 -51 51 -72 83
-56 480 -194 639 -223 143 -26 148 -28 171 -65 37 -59 71 -86 136 -110 96 -35
177 -80 199 -112 11 -15 51 -46 89 -68 127 -74 152 -135 131 -319 l-13 -107
31 -62 c53 -106 61 -160 71 -482 15 -485 48 -1035 71 -1165 14 -86 36 -151 74
-220 43 -80 50 -111 30 -141 -20 -31 -31 -30 -109 10 -35 19 -84 41 -108 50
-24 9 -72 42 -108 72 -104 89 -102 88 -143 64 -29 -17 -45 -20 -84 -15 -55 8
-183 39 -368 90 -71 19 -170 40 -220 45 -56 7 -99 17 -115 28 -40 28 -93 149
-179 407 -97 292 -115 360 -136 512 -9 65 -18 119 -20 122 -10 9 28 62 55 76
42 22 96 78 120 125 32 62 26 120 -21 225 -25 56 -43 112 -46 147 l-6 58 -41
-33 c-75 -59 -154 -146 -180 -199 -51 -102 -25 -214 69 -296 l36 -32 -31 -45
c-17 -24 -35 -47 -41 -51 -6 -4 -3 -12 10 -21 16 -11 21 -25 21 -61 0 -26 9
-100 21 -165 12 -65 19 -121 16 -123 -8 -8 -80 25 -105 49 -13 12 -33 39 -43
59 -11 21 -43 56 -73 78 -44 33 -57 51 -74 98 -28 75 -109 167 -177 198 -66
31 -110 30 -251 -7 -98 -25 -133 -30 -196 -27 -43 3 -78 2 -78 0 0 -3 20 -42
45 -86 89 -158 198 -269 299 -302 92 -31 225 2 311 78 l46 41 37 -30 c22 -18
42 -46 50 -69 10 -32 23 -46 70 -73 92 -55 204 -176 252 -275 66 -131 78 -275
30 -353 -33 -55 -60 -66 -193 -75 -132 -9 -150 -13 -243 -52 -83 -35 -211 -48
-434 -44 l-185 3 -12 93 c-6 52 -14 103 -17 115 -3 14 5 32 30 60 84 93 83
143 -7 262 -20 27 -41 62 -44 78 -4 15 -11 29 -15 32 -11 7 -82 -72 -113 -126
-15 -25 -30 -66 -33 -92 -6 -38 -2 -53 19 -89 14 -24 43 -54 66 -68 44 -27 48
-41 27 -81 -7 -15 -11 -40 -9 -55 4 -25 -13 -10 -114 92 -65 67 -135 129 -153
139 -23 12 -82 23 -172 31 -157 15 -159 16 -352 138 l-130 81 -105 5 -106 5
-170 99 c-93 55 -182 106 -197 115 -16 9 -28 18 -27 21 0 3 35 21 76 42 65 31
81 35 102 26 14 -6 67 -11 116 -11 172 0 336 68 404 166 43 64 66 127 96 268
42 201 75 286 142 359 l35 40 -127 0 c-370 0 -642 -107 -735 -290 -48 -93 -65
-289 -35 -400 8 -30 15 -58 15 -61 0 -10 -111 -57 -153 -64 -27 -5 -44 -3 -62
9 -13 9 -27 16 -30 16 -10 0 -5 -43 12 -92 l18 -49 120 -58 c121 -58 190 -105
179 -122 -9 -16 -152 -10 -385 17 l-227 26 -87 43 c-74 37 -93 52 -122 95 -43
65 -139 135 -212 157 -51 15 -61 15 -116 0 -34 -8 -110 -42 -169 -76 -101 -56
-173 -81 -231 -81 -14 0 -25 -4 -25 -8 0 -5 39 -48 88 -97 183 -186 351 -254
481 -195 67 31 136 86 176 140 l36 50 37 -16 c20 -8 54 -32 76 -52 25 -24 40
-33 43 -24 3 6 21 12 40 12 l35 0 -6 -45 c-5 -27 -3 -45 3 -45 23 0 43 14 52
37 7 20 14 24 32 19 12 -3 60 -13 107 -22 47 -9 89 -20 93 -24 11 -9 -188
-140 -213 -140 -28 0 -66 -42 -101 -112 -25 -49 -37 -61 -89 -89 -70 -37 -149
-118 -188 -193 -22 -42 -27 -64 -26 -126 0 -69 5 -86 56 -205 68 -157 82 -208
76 -280 -3 -37 -1 -52 6 -48 54 31 169 130 239 203 117 122 161 211 162 319 0
63 -5 86 -28 133 -36 73 -92 148 -139 186 l-37 29 29 50 c16 28 44 61 62 74
17 13 52 42 77 66 63 59 112 80 206 88 44 3 115 15 157 26 92 23 136 24 209 5
90 -24 159 -53 251 -106 100 -57 176 -79 393 -116 83 -14 169 -34 193 -45 52
-25 90 -71 176 -214 37 -60 79 -122 93 -137 48 -50 72 -53 406 -52 170 1 305
-1 300 -6 -22 -19 -494 -198 -538 -204 -27 -3 -77 -8 -109 -11 -33 -3 -64 -9
-70 -12 -5 -4 -58 -7 -117 -7 -93 -1 -111 -4 -136 -22 -41 -31 -68 -75 -97
-160 -14 -42 -37 -91 -51 -109 l-25 -34 56 -7 c107 -13 236 15 287 61 42 40
59 83 66 165 l6 75 30 -2 c17 -2 73 1 125 7 52 5 96 7 98 5 2 -2 -8 -21 -22
-42 -31 -45 -31 -45 -7 -75 11 -12 33 -39 49 -58 21 -25 31 -50 35 -87 8 -66
35 -128 76 -176 45 -50 106 -67 243 -67 76 0 119 -5 148 -16 23 -9 43 -14 46
-12 7 8 -44 174 -68 221 -37 74 -82 128 -128 155 -38 23 -56 27 -115 26 -44
-1 -90 -9 -124 -22 -61 -24 -71 -20 -97 31 -21 39 -13 65 33 109 31 31 74 50
241 113 339 126 363 131 732 147 173 7 375 13 449 13 129 0 134 -1 153 -25 13
-16 18 -33 14 -52 -5 -24 0 -30 49 -56 l54 -30 6 29 c13 59 61 63 183 15 243
-94 487 -233 597 -341 76 -74 260 -313 312 -406 24 -42 31 -66 31 -111 0 -32
3 -62 7 -68 10 -16 6 -389 -5 -455 -5 -32 -16 -68 -25 -81 -13 -20 -19 -23
-36 -13 -11 6 -23 9 -25 7 -2 -3 32 -110 77 -239 88 -256 129 -413 154 -588
22 -148 51 -249 132 -446 122 -300 128 -336 120 -710 -6 -271 -17 -384 -42
-422 -20 -29 -34 -29 -79 2 -35 24 -39 24 -66 10 -17 -9 -30 -21 -30 -28 0 -6
27 -48 60 -92 33 -44 65 -98 71 -119 18 -66 29 -259 29 -523 l0 -253 520 0
521 0 -5 33 c-3 17 -8 93 -11 167 -8 173 -32 474 -46 569 -9 63 -57 210 -90
277 -7 14 -6 59 5 150 17 151 13 200 -39 424 -19 80 -39 183 -46 230 -15 113
-16 496 0 583 30 173 262 660 449 941 110 167 195 252 342 343 63 40 165 107
225 151 118 84 102 66 342 387 137 184 261 324 342 388 71 57 235 137 278 137
17 0 36 -7 43 -16 25 -29 56 -38 135 -39 79 0 81 -1 142 -47 67 -50 109 -67
216 -92 77 -18 108 -39 333 -232 77 -66 163 -136 190 -154 27 -19 76 -59 109
-90 33 -31 86 -77 118 -104 74 -62 117 -134 117 -198 0 -26 7 -69 16 -95 33
-99 93 -145 204 -158 102 -12 165 -27 199 -48 l34 -21 -7 68 c-14 143 -74 274
-149 330 -24 18 -43 21 -115 21 -48 0 -103 -4 -123 -8 -49 -12 -61 15 -19 40
17 9 30 20 30 23 0 3 -30 16 -67 29 -139 49 -209 103 -196 152 7 26 89 92 205
165 51 32 118 78 148 102 l55 45 95 -7 c101 -7 130 -21 130 -61 0 -47 30 -121
62 -152 40 -38 53 -42 170 -53 51 -5 103 -12 116 -15 29 -9 29 14 1 98 -56
169 -148 227 -283 181 -55 -19 -70 -10 -62 39 4 17 1 27 -7 28 -69 4 -91 22
-82 68 15 82 37 95 190 115 187 25 233 35 343 72 103 34 171 65 227 104 26 17
40 19 100 14 164 -14 371 67 451 175 48 66 72 145 94 321 25 192 48 270 100
342 l40 57 -57 -5 c-325 -28 -544 -101 -676 -224 -78 -73 -113 -144 -127 -259
-13 -98 0 -221 30 -288 14 -31 17 -50 10 -58 -24 -29 -117 -69 -174 -74 -52
-5 -61 -9 -61 -26 0 -18 -9 -21 -110 -26 -98 -6 -126 -12 -253 -57 -141 -50
-146 -53 -295 -165 -266 -201 -405 -287 -461 -287 -37 0 -69 25 -246 185 -287
260 -340 291 -590 340 -125 25 -166 56 -140 105 13 24 179 106 315 155 179 65
407 126 573 154 l163 27 57 71 c32 39 94 106 137 149 44 44 125 127 180 185
113 120 224 211 323 265 37 21 100 60 141 87 41 28 93 54 115 59 23 5 65 18
93 29 44 18 58 19 84 10 46 -16 177 -14 236 4 119 35 164 92 226 286 38 118
55 154 91 200 l44 57 -45 6 c-76 10 -223 6 -305 -8 -153 -28 -258 -100 -300
-206 -17 -44 -22 -79 -24 -170 l-2 -115 -32 -13 c-30 -12 -31 -12 -25 9 6 16
4 21 -6 17 -87 -35 -108 -45 -130 -68 -22 -21 -81 -58 -232 -142 -16 -10 -34
-15 -39 -12 -15 9 -9 64 18 162 25 91 28 97 83 148 64 59 115 150 126 224 8
53 -13 124 -54 185 -15 22 -53 77 -84 122 -41 61 -59 98 -69 143 l-12 60 -29
-28 c-52 -49 -149 -186 -183 -257 -58 -121 -64 -214 -21 -300 27 -54 118 -148
171 -176 43 -22 43 -23 34 -58 -11 -38 -41 -88 -66 -108 -13 -11 -11 -14 10
-22 24 -9 25 -12 17 -58 -5 -26 -11 -62 -14 -79 -5 -27 -22 -43 -128 -112
-106 -69 -137 -97 -238 -208 -64 -71 -129 -144 -144 -161 -31 -39 -44 -43
-350 -113 -121 -28 -322 -76 -447 -106 l-228 -56 -157 -98 c-87 -54 -257 -163
-378 -242 l-220 -144 -113 -135 c-169 -199 -331 -368 -445 -463 -93 -78 -333
-233 -344 -223 -10 11 60 143 105 195 93 110 103 126 88 147 -13 18 -15 17
-52 -13 -50 -41 -70 -41 -78 0 -12 60 29 444 56 528 6 19 27 54 46 78 19 23
33 44 31 45 -2 2 -17 9 -33 15 l-29 13 7 82 c3 45 11 143 16 217 16 229 46
345 119 456 51 78 64 90 294 248 432 298 603 392 832 456 114 32 399 72 510
71 l99 0 156 83 c148 80 367 186 530 256 41 18 182 84 313 148 236 115 237
116 247 154 8 30 7 44 -5 67 -52 102 20 202 270 371 86 59 171 126 220 175
227 229 284 292 313 351 34 67 74 106 172 169 117 75 212 122 218 106 2 -7 23
-36 47 -65 31 -39 43 -64 48 -101 14 -102 86 -212 162 -246 33 -15 67 -19 197
-19 130 0 166 -3 208 -19 l50 -19 -7 26 c-17 71 -57 183 -86 237 -45 86 -139
178 -200 195 -67 18 -167 6 -244 -30 l-62 -29 -31 42 c-35 47 -38 73 -11 82
11 3 24 12 31 20 21 25 -76 -8 -214 -74 -70 -33 -133 -61 -139 -61 -14 0 -2
189 18 264 28 108 49 142 147 235 154 147 153 146 219 143 41 -1 74 -11 114
-32 99 -52 147 -37 205 65 17 30 44 65 60 79 l29 24 -24 16 c-59 39 -145 62
-212 57 -33 -2 -80 -47 -94 -89 -14 -46 -17 -48 -56 -57 -28 -5 -32 -3 -35 17
-2 13 6 37 19 56 67 92 69 147 7 239 -59 87 -74 117 -74 143 0 33 -19 20 -71
-47 -58 -76 -93 -163 -86 -216 7 -50 47 -107 97 -137 22 -14 40 -29 40 -33 1
-33 -87 -136 -154 -181 -123 -81 -236 -331 -236 -520 l0 -49 -151 -148 -152
-148 6 57 c3 31 11 161 18 287 l12 230 -26 40 c-24 37 -26 44 -16 80 16 56 6
192 -18 246 -39 87 -104 131 -254 169 -103 26 -183 65 -215 103 -34 40 -37 24
-32 -151 6 -166 25 -244 79 -325 59 -90 202 -142 330 -121 l59 10 14 -40 c39
-109 40 -354 3 -496 -49 -190 -55 -199 -217 -343 -298 -265 -447 -414 -491
-488 -44 -77 -101 -125 -184 -158 -27 -11 -223 -89 -434 -175 -212 -86 -386
-154 -389 -152 -6 6 25 63 103 186 40 63 84 139 99 168 14 28 33 52 40 52 24
0 53 46 71 112 14 52 23 67 55 90 76 53 140 177 140 272 0 62 -28 122 -104
226 -63 85 -92 145 -101 203 -7 47 -8 48 -28 30 -38 -34 -136 -163 -171 -226
-70 -126 -87 -242 -48 -329 25 -58 111 -149 166 -179 50 -26 55 -39 31 -95
l-14 -35 -37 16 c-34 14 -36 14 -29 -3 28 -72 11 -124 -84 -250 -66 -87 -229
-259 -271 -285 -14 -9 -59 -23 -100 -32 -95 -20 -380 -61 -487 -70 -75 -6 -82
-5 -92 13 -6 12 -11 30 -11 41 0 26 -6 26 -53 -2 -31 -18 -42 -33 -57 -75 -10
-30 -24 -60 -31 -67 -8 -8 -68 -37 -134 -66 -177 -76 -320 -150 -414 -213 -46
-31 -85 -56 -86 -56 -1 0 -5 72 -8 159 -6 125 -4 174 8 225 24 102 85 307 101
337 8 16 60 63 117 105 116 88 192 157 212 195 9 17 13 53 12 102 -1 41 1 79
6 83 13 13 66 -59 67 -91 1 -41 40 -134 76 -178 50 -63 79 -72 249 -73 116 0
159 -4 189 -17 21 -9 40 -17 41 -17 11 0 -34 131 -72 209 -54 113 -119 184
-184 201 -61 17 -158 6 -221 -24 l-53 -25 -27 26 c-32 31 -35 49 -11 75 17 19
16 19 -22 16 -38 -3 -40 -5 -47 -45 -4 -23 -15 -56 -24 -75 -10 -18 -21 -58
-24 -88 l-5 -54 -179 -123 c-98 -68 -181 -121 -183 -119 -3 2 1 21 7 43 12 39
13 84 30 868 15 663 34 1028 61 1127 13 51 52 94 111 124 28 14 90 64 139 111
78 76 91 84 102 70 16 -21 53 -34 134 -47 57 -9 73 -17 111 -51 89 -83 239
-132 336 -110 71 16 121 49 243 164 94 88 185 147 226 147 47 0 8 34 -131 115
-120 70 -258 115 -353 115 -43 0 -95 -7 -122 -16 -87 -29 -209 -166 -239 -267
l-12 -39 -46 5 c-65 8 -123 36 -109 54 9 10 5 13 -22 13 -28 -1 -54 -18 -154
-106 l-120 -105 -50 6 c-56 7 -59 10 -81 80 -25 80 -29 199 -10 275 21 81 44
122 151 268 48 64 128 194 179 287 102 187 117 203 214 230 97 26 115 39 153
101 20 33 55 89 78 127 23 37 50 88 59 113 l18 45 19 -38 c13 -27 19 -62 20
-123 0 -72 5 -95 29 -143 35 -72 78 -99 206 -127 61 -13 113 -31 144 -51 l49
-30 -6 108 c-7 142 -37 230 -100 290 -56 53 -107 67 -210 59 l-78 -5 -15 34
c-8 19 -14 48 -14 64 0 16 -6 32 -12 34 -8 3 -6 6 5 6 19 1 57 56 57 84 0 9
25 44 55 77 40 43 58 74 70 114 20 68 10 108 -46 187 -50 68 -89 147 -89 179
-1 23 -5 21 -48 -27 -64 -70 -119 -165 -132 -229 -17 -80 0 -127 69 -194 31
-30 65 -60 76 -66 18 -10 16 -17 -49 -150 -83 -170 -159 -297 -192 -323 -14
-11 -67 -30 -118 -41 -90 -21 -94 -23 -110 -58 -30 -64 -207 -321 -243 -352
-40 -36 -53 -37 -81 -7 -26 28 -38 58 -47 123 -6 48 -4 56 24 94 17 24 31 49
31 57 0 8 -23 36 -52 62 l-51 47 26 95 c33 116 33 140 2 243 -13 44 -45 174
-70 287 -48 221 -48 222 -4 312 16 33 20 52 14 61 -6 8 -23 31 -40 51 -24 31
-31 51 -36 110 -7 74 -40 154 -76 187 -35 32 -94 49 -198 58 -79 7 -116 15
-154 34 l-50 26 5 -38z"/>
<path d="M8536 8101 c-116 -137 -159 -257 -122 -346 19 -45 89 -120 127 -135
24 -10 28 -17 23 -34 -10 -34 -33 -74 -46 -82 -18 -11 24 -23 44 -13 10 5 24
32 32 59 10 32 26 60 46 76 35 30 77 98 91 148 14 52 -4 106 -65 195 -28 42
-58 92 -65 111 -7 19 -16 42 -19 51 -6 13 -15 6 -46 -30z"/>
</g>
</svg>
